<?xml version="1.0" standalone="no"?>
<!DOCTYPE svg PUBLIC "-//W3C//DTD SVG 20010904//EN"
 "http://www.w3.org/TR/2001/REC-SVG-20010904/DTD/svg10.dtd">
<svg version="1.0" xmlns="http://www.w3.org/2000/svg"
 width="225.000000pt" height="225.000000pt" viewBox="0 0 225.000000 225.000000"
 preserveAspectRatio="xMidYMid meet">

<g transform="translate(0.000000,225.000000) scale(0.100000,-0.100000)"
fill="#000000" stroke="none">
<path d="M0 1125 l0 -1125 1125 0 1125 0 0 1125 0 1125 -1125 0 -1125 0 0
-1125z m610 674 c143 -27 198 -32 410 -38 344 -10 358 -17 627 -267 196 -184
241 -219 331 -262 l73 -35 -6 -46 c-5 -41 4 -154 21 -248 5 -28 2 -33 -26 -48
l-31 -16 -119 85 c-65 47 -124 88 -132 91 -11 4 -19 -13 -33 -75 -10 -44 -23
-80 -29 -80 -23 0 -214 102 -271 145 -33 25 -187 163 -342 306 -155 144 -308
281 -339 305 -78 58 -213 127 -309 159 -44 14 -86 28 -93 30 -7 3 -10 9 -7 15
11 18 106 11 275 -21z m1023 4 c61 -10 166 -16 262 -17 l160 -1 -3 -25 c-16
-157 -13 -265 14 -397 6 -29 4 -33 -14 -33 -39 0 -150 88 -306 243 -142 141
-167 162 -237 195 -44 20 -79 40 -79 45 0 12 95 8 203 -10z m-1303 -129 c111
-29 232 -85 315 -146 33 -25 192 -167 354 -317 161 -149 325 -295 365 -322 74
-53 187 -113 269 -144 53 -20 66 -33 46 -46 -44 -28 -294 19 -640 121 l-66 20
-53 142 c-29 79 -54 144 -55 146 -2 2 -64 -44 -139 -103 l-136 -106 -153 144
c-153 144 -197 177 -238 177 -21 0 -21 1 -13 98 14 151 9 242 -16 301 -12 27
-19 54 -16 60 8 12 56 5 176 -25z m-84 -582 c21 -16 73 -67 113 -113 41 -46
85 -96 98 -110 l24 -26 -42 -28 -42 -27 -106 12 c-58 6 -107 13 -109 15 -2 2
1 43 7 92 8 62 9 104 1 142 -5 29 -10 58 -10 62 0 17 27 9 66 -19z m604 -255
l35 -91 361 -90 361 -90 66 28 c36 15 72 33 81 39 8 7 26 51 38 98 13 48 27
88 31 89 5 1 45 -23 88 -55 l80 -57 67 27 c37 15 72 29 79 32 6 3 19 -9 27
-26 l16 -30 -133 -72 c-72 -40 -157 -86 -187 -104 l-55 -31 -16 -82 c-9 -46
-19 -85 -22 -88 -3 -4 -57 23 -119 58 -97 56 -140 73 -306 122 l-193 57 -89
-60 c-49 -34 -92 -61 -97 -61 -5 0 -17 42 -27 93 l-17 94 -127 34 -127 35
-139 -128 c-77 -70 -143 -128 -148 -128 -4 0 -27 29 -50 64 l-42 63 -114 37
c-104 35 -112 39 -106 59 3 12 8 24 10 26 2 3 83 -3 179 -13 l174 -18 123 85
c68 47 152 108 188 136 35 27 67 48 70 45 3 -3 21 -47 40 -97z"/>
</g>
</svg>
